<?xml version="1.0" encoding="UTF-8"?>
<svg id="Layer_2" data-name="Layer 2" xmlns="http://www.w3.org/2000/svg" viewBox="0 0 120.82 17.61">
  <defs>
    <style>
      .cls-1 {
        fill: #0a0b0e;
      }

      .cls-2 {
        fill: #f36f21;
      }
    </style>
  </defs>
  <g id="Layer_1-2" data-name="Layer 1">
    <path class="cls-1" d="M6.63,15c1.88,0,2.6-1.07,2.6-2.78v-5.85h3.17v6.1c0,3.02-1.94,5.15-5.74,5.15-2.25,0-3.76-.75-4.81-2.01l2.13-1.85c.67.84,1.43,1.24,2.64,1.24"/>
    <polygon class="cls-1" points="26.76 14.82 26.76 17.25 15.15 17.25 15.15 6.36 26.59 6.36 26.59 8.79 18.27 8.79 18.27 10.58 25.13 10.58 25.13 12.9 18.27 12.9 18.27 14.82 26.76 14.82"/>
    <polygon class="cls-1" points="39.79 8.9 35.81 8.9 35.81 17.25 32.64 17.25 32.64 8.9 28.15 8.9 28.15 6.37 41.19 6.37 39.79 8.9"/>
    <polygon class="cls-1" points="53.21 6.36 58.23 15.83 63.25 6.36 64.7 6.36 58.93 17.25 57.5 17.25 51.73 6.36 53.21 6.36"/>
    <polygon class="cls-1" points="50.89 17.25 45.87 7.78 40.84 17.25 39.4 17.25 45.17 6.37 46.6 6.37 52.37 17.25 50.89 17.25"/>
    <polygon class="cls-1" points="77.56 16.04 77.56 17.25 67.03 17.25 67.03 6.37 77.4 6.37 77.4 7.58 68.34 7.58 68.34 11.11 76.02 11.11 76.02 12.32 68.34 12.32 68.34 16.04 77.56 16.04"/>
    <polygon class="cls-1" points="91.74 6.36 91.74 17.25 90.59 17.25 81.45 8.03 81.45 17.25 80.17 17.25 80.17 6.36 81.59 6.36 90.46 15.34 90.46 6.36 91.74 6.36"/>
    <path class="cls-1" d="M106.77,6.36v5.75c0,3.17-1.99,5.46-5.74,5.46s-5.75-2.29-5.75-5.46v-5.75h1.31v5.68c0,2.67,1.6,4.32,4.45,4.32s4.43-1.65,4.43-4.32v-5.68h1.31Z"/>
    <polygon class="cls-1" points="120.82 16.04 120.82 17.25 110.29 17.25 110.29 6.37 120.66 6.37 120.66 7.58 111.6 7.58 111.6 11.11 119.28 11.11 119.28 12.32 111.6 12.32 111.6 16.04 120.82 16.04"/>
    <path class="cls-2" d="M42.84,3.62l-.35.61c-8.52-1.62-17.22-2.97-25.89-2.4-5.4.46-13.59,2.03-13.94,8.65,0,.21,0,.42.01.64L.23,13.04c-.59-2.46-.04-5.14,1.37-7.23.73-1.04,1.69-1.97,2.75-2.66.2-.13.49-.34.7-.45,9.58-5.36,27.44-1.5,37.78.91"/>
  </g>
</svg>